<mxfile host="Electron" agent="Mozilla/5.0 (X11; Linux x86_64) AppleWebKit/537.36 (KHTML, like Gecko) draw.io/27.0.5 Chrome/134.0.6998.205 Electron/35.3.0 Safari/537.36" version="27.0.5">
  <diagram name="Page-1" id="fxIl6oR33fxB2Xth4Tn-">
    <mxGraphModel dx="3652" dy="950" grid="0" gridSize="10" guides="1" tooltips="1" connect="1" arrows="1" fold="1" page="0" pageScale="1" pageWidth="827" pageHeight="1169" math="0" shadow="0">
      <root>
        <mxCell id="0" />
        <mxCell id="1" parent="0" />
        <mxCell id="F8TBr911rGf3QCcraJPH-3" value="User" style="html=1;dashed=0;whiteSpace=wrap;fillColor=#dae8fc;gradientColor=#7ea6e0;strokeColor=#6c8ebf;" vertex="1" parent="1">
          <mxGeometry x="-262" y="1170" width="100" height="50" as="geometry" />
        </mxCell>
        <mxCell id="F8TBr911rGf3QCcraJPH-4" value="Запросы на отчёты, фильтры" style="html=1;dashed=0;whiteSpace=wrap;" vertex="1" parent="1">
          <mxGeometry x="-262" y="1314" width="100" height="50" as="geometry" />
        </mxCell>
        <mxCell id="F8TBr911rGf3QCcraJPH-5" value="" style="endArrow=classic;html=1;rounded=0;exitX=0.5;exitY=1;exitDx=0;exitDy=0;entryX=0.5;entryY=0;entryDx=0;entryDy=0;" edge="1" parent="1" source="F8TBr911rGf3QCcraJPH-3" target="F8TBr911rGf3QCcraJPH-4">
          <mxGeometry width="50" height="50" relative="1" as="geometry">
            <mxPoint x="337" y="1649" as="sourcePoint" />
            <mxPoint x="387" y="1599" as="targetPoint" />
          </mxGeometry>
        </mxCell>
        <mxCell id="F8TBr911rGf3QCcraJPH-6" value="Data Portal" style="html=1;dashed=0;whiteSpace=wrap;fillColor=#d5e8d4;gradientColor=#FF8000;strokeColor=#82b366;" vertex="1" parent="1">
          <mxGeometry x="-262" y="1440" width="100" height="50" as="geometry" />
        </mxCell>
        <mxCell id="F8TBr911rGf3QCcraJPH-7" value="" style="endArrow=classic;html=1;rounded=0;exitX=0.5;exitY=1;exitDx=0;exitDy=0;entryX=0.5;entryY=0;entryDx=0;entryDy=0;" edge="1" parent="1" source="F8TBr911rGf3QCcraJPH-4" target="F8TBr911rGf3QCcraJPH-6">
          <mxGeometry width="50" height="50" relative="1" as="geometry">
            <mxPoint x="337" y="1649" as="sourcePoint" />
            <mxPoint x="387" y="1599" as="targetPoint" />
          </mxGeometry>
        </mxCell>
        <mxCell id="F8TBr911rGf3QCcraJPH-8" value="API-запросы" style="html=1;dashed=0;whiteSpace=wrap;" vertex="1" parent="1">
          <mxGeometry x="-262" y="1575" width="100" height="50" as="geometry" />
        </mxCell>
        <mxCell id="F8TBr911rGf3QCcraJPH-9" value="" style="endArrow=classic;html=1;rounded=0;exitX=0.5;exitY=1;exitDx=0;exitDy=0;entryX=0.5;entryY=0;entryDx=0;entryDy=0;" edge="1" parent="1" source="F8TBr911rGf3QCcraJPH-6" target="F8TBr911rGf3QCcraJPH-8">
          <mxGeometry width="50" height="50" relative="1" as="geometry">
            <mxPoint x="433" y="1649" as="sourcePoint" />
            <mxPoint x="483" y="1599" as="targetPoint" />
          </mxGeometry>
        </mxCell>
        <mxCell id="F8TBr911rGf3QCcraJPH-10" value="API Gateway" style="html=1;dashed=0;whiteSpace=wrap;fillColor=#d5e8d4;gradientColor=#FF8000;strokeColor=#82b366;" vertex="1" parent="1">
          <mxGeometry x="-262" y="1711" width="100" height="50" as="geometry" />
        </mxCell>
        <mxCell id="F8TBr911rGf3QCcraJPH-11" value="" style="endArrow=classic;html=1;rounded=0;exitX=0.5;exitY=1;exitDx=0;exitDy=0;entryX=0.5;entryY=0;entryDx=0;entryDy=0;" edge="1" parent="1" source="F8TBr911rGf3QCcraJPH-8" target="F8TBr911rGf3QCcraJPH-10">
          <mxGeometry width="50" height="50" relative="1" as="geometry">
            <mxPoint x="433" y="1649" as="sourcePoint" />
            <mxPoint x="483" y="1599" as="targetPoint" />
          </mxGeometry>
        </mxCell>
        <mxCell id="F8TBr911rGf3QCcraJPH-12" value="Auth Service" style="html=1;dashed=0;whiteSpace=wrap;fillColor=#97D077;gradientColor=#97D077;strokeColor=#d6b656;" vertex="1" parent="1">
          <mxGeometry x="-564" y="1711" width="100" height="50" as="geometry" />
        </mxCell>
        <mxCell id="F8TBr911rGf3QCcraJPH-13" value="Проверка прав доступа" style="html=1;dashed=0;whiteSpace=wrap;" vertex="1" parent="1">
          <mxGeometry x="-417" y="1656" width="100" height="50" as="geometry" />
        </mxCell>
        <mxCell id="F8TBr911rGf3QCcraJPH-14" value="Ответ о правах доступа" style="html=1;dashed=0;whiteSpace=wrap;" vertex="1" parent="1">
          <mxGeometry x="-417" y="1807" width="100" height="50" as="geometry" />
        </mxCell>
        <mxCell id="F8TBr911rGf3QCcraJPH-15" value="" style="endArrow=classic;html=1;rounded=0;entryX=1;entryY=0.5;entryDx=0;entryDy=0;edgeStyle=orthogonalEdgeStyle;" edge="1" parent="1" target="F8TBr911rGf3QCcraJPH-13">
          <mxGeometry width="50" height="50" relative="1" as="geometry">
            <mxPoint x="-263" y="1719" as="sourcePoint" />
            <mxPoint x="250" y="1754" as="targetPoint" />
          </mxGeometry>
        </mxCell>
        <mxCell id="F8TBr911rGf3QCcraJPH-16" value="" style="endArrow=classic;html=1;rounded=0;entryX=0.991;entryY=0.161;entryDx=0;entryDy=0;exitX=0;exitY=0.5;exitDx=0;exitDy=0;edgeStyle=orthogonalEdgeStyle;entryPerimeter=0;" edge="1" parent="1" source="F8TBr911rGf3QCcraJPH-13" target="F8TBr911rGf3QCcraJPH-12">
          <mxGeometry width="50" height="50" relative="1" as="geometry">
            <mxPoint x="200" y="1804" as="sourcePoint" />
            <mxPoint x="250" y="1754" as="targetPoint" />
          </mxGeometry>
        </mxCell>
        <mxCell id="F8TBr911rGf3QCcraJPH-17" value="" style="endArrow=classic;html=1;rounded=0;exitX=1.013;exitY=0.697;exitDx=0;exitDy=0;entryX=0;entryY=0.5;entryDx=0;entryDy=0;edgeStyle=orthogonalEdgeStyle;exitPerimeter=0;" edge="1" parent="1" source="F8TBr911rGf3QCcraJPH-12" target="F8TBr911rGf3QCcraJPH-14">
          <mxGeometry width="50" height="50" relative="1" as="geometry">
            <mxPoint x="200" y="1804" as="sourcePoint" />
            <mxPoint x="250" y="1754" as="targetPoint" />
          </mxGeometry>
        </mxCell>
        <mxCell id="F8TBr911rGf3QCcraJPH-18" value="" style="endArrow=classic;html=1;rounded=0;exitX=1;exitY=0.5;exitDx=0;exitDy=0;entryX=0;entryY=0.68;entryDx=0;entryDy=0;edgeStyle=orthogonalEdgeStyle;entryPerimeter=0;" edge="1" parent="1" source="F8TBr911rGf3QCcraJPH-14" target="F8TBr911rGf3QCcraJPH-10">
          <mxGeometry width="50" height="50" relative="1" as="geometry">
            <mxPoint x="200" y="1804" as="sourcePoint" />
            <mxPoint x="250" y="1754" as="targetPoint" />
          </mxGeometry>
        </mxCell>
        <mxCell id="F8TBr911rGf3QCcraJPH-19" value="Data Mart" style="html=1;dashed=0;whiteSpace=wrap;fillColor=#e6d0de;gradientColor=light-dark(#FF002A,#EDEDED);strokeColor=#996185;" vertex="1" parent="1">
          <mxGeometry x="78" y="1711" width="100" height="50" as="geometry" />
        </mxCell>
        <mxCell id="F8TBr911rGf3QCcraJPH-20" value="Запрос данных после авторизации" style="html=1;dashed=0;whiteSpace=wrap;" vertex="1" parent="1">
          <mxGeometry x="-98" y="1711" width="100" height="50" as="geometry" />
        </mxCell>
        <mxCell id="F8TBr911rGf3QCcraJPH-21" value="Агрегированные данные для отчёта" style="html=1;dashed=0;whiteSpace=wrap;" vertex="1" parent="1">
          <mxGeometry x="78" y="1440" width="100" height="50" as="geometry" />
        </mxCell>
        <mxCell id="F8TBr911rGf3QCcraJPH-22" value="Данные для визуализации в BI" style="html=1;dashed=0;whiteSpace=wrap;" vertex="1" parent="1">
          <mxGeometry x="78" y="1838" width="100" height="50" as="geometry" />
        </mxCell>
        <mxCell id="F8TBr911rGf3QCcraJPH-24" value="Power BI" style="html=1;dashed=0;whiteSpace=wrap;fillColor=#9933FF;gradientColor=#9933FF;strokeColor=#d79b00;" vertex="1" parent="1">
          <mxGeometry x="78" y="1965" width="100" height="50" as="geometry" />
        </mxCell>
        <mxCell id="F8TBr911rGf3QCcraJPH-25" value="Airflow ETL" style="html=1;dashed=0;whiteSpace=wrap;fillColor=#e6d0de;gradientColor=light-dark(#FF002A,#EDEDED);strokeColor=#996185;" vertex="1" parent="1">
          <mxGeometry x="409" y="1711" width="100" height="50" as="geometry" />
        </mxCell>
        <mxCell id="F8TBr911rGf3QCcraJPH-27" value="&lt;table&gt;&lt;tbody&gt;&lt;tr&gt;&lt;td data-end=&quot;1307&quot; data-start=&quot;1263&quot; class=&quot;max-w-[calc(var(--thread-content-max-width)*2/3)]&quot;&gt;Загрузка витринных&amp;nbsp;&lt;br&gt;данных&lt;/td&gt;&lt;/tr&gt;&lt;/tbody&gt;&lt;/table&gt;&lt;table&gt;&lt;tbody&gt;&lt;tr&gt;&lt;td class=&quot;max-w-[calc(var(--thread-content-max-width)*2/3)]&quot;&gt;&lt;/td&gt;&lt;/tr&gt;&lt;/tbody&gt;&lt;/table&gt;" style="html=1;dashed=0;whiteSpace=wrap;" vertex="1" parent="1">
          <mxGeometry x="241" y="1711" width="100" height="50" as="geometry" />
        </mxCell>
        <mxCell id="F8TBr911rGf3QCcraJPH-28" value="" style="endArrow=classic;html=1;rounded=0;exitX=1;exitY=0.5;exitDx=0;exitDy=0;entryX=0;entryY=0.5;entryDx=0;entryDy=0;" edge="1" parent="1" source="F8TBr911rGf3QCcraJPH-10" target="F8TBr911rGf3QCcraJPH-20">
          <mxGeometry width="50" height="50" relative="1" as="geometry">
            <mxPoint x="525" y="1710" as="sourcePoint" />
            <mxPoint x="575" y="1660" as="targetPoint" />
          </mxGeometry>
        </mxCell>
        <mxCell id="F8TBr911rGf3QCcraJPH-29" value="" style="endArrow=classic;html=1;rounded=0;exitX=1;exitY=0.5;exitDx=0;exitDy=0;entryX=0;entryY=0.5;entryDx=0;entryDy=0;" edge="1" parent="1" source="F8TBr911rGf3QCcraJPH-20" target="F8TBr911rGf3QCcraJPH-19">
          <mxGeometry width="50" height="50" relative="1" as="geometry">
            <mxPoint x="525" y="1710" as="sourcePoint" />
            <mxPoint x="575" y="1660" as="targetPoint" />
          </mxGeometry>
        </mxCell>
        <mxCell id="F8TBr911rGf3QCcraJPH-30" value="" style="endArrow=classic;html=1;rounded=0;exitX=0.5;exitY=0;exitDx=0;exitDy=0;entryX=0.5;entryY=1;entryDx=0;entryDy=0;" edge="1" parent="1" source="F8TBr911rGf3QCcraJPH-19" target="F8TBr911rGf3QCcraJPH-21">
          <mxGeometry width="50" height="50" relative="1" as="geometry">
            <mxPoint x="525" y="1710" as="sourcePoint" />
            <mxPoint x="575" y="1660" as="targetPoint" />
          </mxGeometry>
        </mxCell>
        <mxCell id="F8TBr911rGf3QCcraJPH-31" value="" style="endArrow=classic;html=1;rounded=0;entryX=1;entryY=0.5;entryDx=0;entryDy=0;exitX=0;exitY=0.5;exitDx=0;exitDy=0;" edge="1" parent="1" source="F8TBr911rGf3QCcraJPH-21" target="F8TBr911rGf3QCcraJPH-6">
          <mxGeometry width="50" height="50" relative="1" as="geometry">
            <mxPoint x="525" y="1710" as="sourcePoint" />
            <mxPoint x="575" y="1660" as="targetPoint" />
          </mxGeometry>
        </mxCell>
        <mxCell id="F8TBr911rGf3QCcraJPH-32" value="" style="endArrow=classic;html=1;rounded=0;exitX=1;exitY=0.5;exitDx=0;exitDy=0;entryX=0;entryY=0.5;entryDx=0;entryDy=0;" edge="1" parent="1" source="F8TBr911rGf3QCcraJPH-19" target="F8TBr911rGf3QCcraJPH-27">
          <mxGeometry width="50" height="50" relative="1" as="geometry">
            <mxPoint x="830" y="1710" as="sourcePoint" />
            <mxPoint x="880" y="1660" as="targetPoint" />
          </mxGeometry>
        </mxCell>
        <mxCell id="F8TBr911rGf3QCcraJPH-33" value="" style="endArrow=classic;html=1;rounded=0;exitX=1;exitY=0.5;exitDx=0;exitDy=0;entryX=0;entryY=0.5;entryDx=0;entryDy=0;" edge="1" parent="1" source="F8TBr911rGf3QCcraJPH-27" target="F8TBr911rGf3QCcraJPH-25">
          <mxGeometry width="50" height="50" relative="1" as="geometry">
            <mxPoint x="830" y="1710" as="sourcePoint" />
            <mxPoint x="880" y="1660" as="targetPoint" />
          </mxGeometry>
        </mxCell>
        <mxCell id="F8TBr911rGf3QCcraJPH-34" value="" style="endArrow=classic;html=1;rounded=0;exitX=0.5;exitY=1;exitDx=0;exitDy=0;entryX=0.5;entryY=0;entryDx=0;entryDy=0;" edge="1" parent="1" source="F8TBr911rGf3QCcraJPH-19" target="F8TBr911rGf3QCcraJPH-22">
          <mxGeometry width="50" height="50" relative="1" as="geometry">
            <mxPoint x="830" y="1710" as="sourcePoint" />
            <mxPoint x="880" y="1660" as="targetPoint" />
          </mxGeometry>
        </mxCell>
        <mxCell id="F8TBr911rGf3QCcraJPH-35" value="" style="endArrow=classic;html=1;rounded=0;exitX=0.5;exitY=1;exitDx=0;exitDy=0;entryX=0.5;entryY=0;entryDx=0;entryDy=0;" edge="1" parent="1" source="F8TBr911rGf3QCcraJPH-22" target="F8TBr911rGf3QCcraJPH-24">
          <mxGeometry width="50" height="50" relative="1" as="geometry">
            <mxPoint x="830" y="1710" as="sourcePoint" />
            <mxPoint x="880" y="1660" as="targetPoint" />
          </mxGeometry>
        </mxCell>
        <mxCell id="F8TBr911rGf3QCcraJPH-36" value="Fintech" style="html=1;dashed=0;whiteSpace=wrap;fillColor=#f5f5f5;gradientColor=#D5E8D4;strokeColor=#666666;" vertex="1" parent="1">
          <mxGeometry x="892" y="1459" width="100" height="50" as="geometry" />
        </mxCell>
        <mxCell id="F8TBr911rGf3QCcraJPH-37" value="Clinic" style="html=1;dashed=0;whiteSpace=wrap;fillColor=#f5f5f5;gradientColor=#D5E8D4;strokeColor=#666666;" vertex="1" parent="1">
          <mxGeometry x="892" y="1550" width="100" height="50" as="geometry" />
        </mxCell>
        <mxCell id="F8TBr911rGf3QCcraJPH-38" value="AI" style="html=1;dashed=0;whiteSpace=wrap;fillColor=#f5f5f5;gradientColor=#D5E8D4;strokeColor=#666666;" vertex="1" parent="1">
          <mxGeometry x="892" y="1644" width="100" height="50" as="geometry" />
        </mxCell>
        <mxCell id="F8TBr911rGf3QCcraJPH-39" value="HR" style="html=1;dashed=0;whiteSpace=wrap;fillColor=#f5f5f5;gradientColor=#D5E8D4;strokeColor=#666666;" vertex="1" parent="1">
          <mxGeometry x="892" y="1727" width="100" height="50" as="geometry" />
        </mxCell>
        <mxCell id="F8TBr911rGf3QCcraJPH-40" value="Inventory" style="html=1;dashed=0;whiteSpace=wrap;fillColor=#f5f5f5;gradientColor=#D5E8D4;strokeColor=#666666;" vertex="1" parent="1">
          <mxGeometry x="892" y="1822" width="100" height="50" as="geometry" />
        </mxCell>
        <mxCell id="F8TBr911rGf3QCcraJPH-41" value="User" style="html=1;dashed=0;whiteSpace=wrap;fillColor=#f5f5f5;gradientColor=#D5E8D4;strokeColor=#666666;" vertex="1" parent="1">
          <mxGeometry x="892" y="1928" width="100" height="50" as="geometry" />
        </mxCell>
        <mxCell id="F8TBr911rGf3QCcraJPH-43" value="Сырые финансовые данные" style="html=1;dashed=0;whiteSpace=wrap;" vertex="1" parent="1">
          <mxGeometry x="692" y="1459" width="100" height="50" as="geometry" />
        </mxCell>
        <mxCell id="F8TBr911rGf3QCcraJPH-44" value="" style="endArrow=classic;html=1;rounded=0;entryX=1;entryY=0.5;entryDx=0;entryDy=0;exitX=0;exitY=0.5;exitDx=0;exitDy=0;" edge="1" parent="1" source="F8TBr911rGf3QCcraJPH-36" target="F8TBr911rGf3QCcraJPH-43">
          <mxGeometry width="50" height="50" relative="1" as="geometry">
            <mxPoint x="955" y="1736" as="sourcePoint" />
            <mxPoint x="1005" y="1686" as="targetPoint" />
          </mxGeometry>
        </mxCell>
        <mxCell id="F8TBr911rGf3QCcraJPH-45" value="" style="endArrow=classic;html=1;rounded=0;exitX=0;exitY=0.5;exitDx=0;exitDy=0;entryX=1;entryY=0.5;entryDx=0;entryDy=0;edgeStyle=orthogonalEdgeStyle;" edge="1" parent="1" source="F8TBr911rGf3QCcraJPH-43" target="F8TBr911rGf3QCcraJPH-25">
          <mxGeometry width="50" height="50" relative="1" as="geometry">
            <mxPoint x="955" y="1736" as="sourcePoint" />
            <mxPoint x="1005" y="1686" as="targetPoint" />
          </mxGeometry>
        </mxCell>
        <mxCell id="F8TBr911rGf3QCcraJPH-46" value="Сырые медицинские данные" style="html=1;dashed=0;whiteSpace=wrap;" vertex="1" parent="1">
          <mxGeometry x="695" y="1550" width="100" height="50" as="geometry" />
        </mxCell>
        <mxCell id="F8TBr911rGf3QCcraJPH-47" value="&lt;table&gt;&lt;tbody&gt;&lt;tr&gt;&lt;td data-end=&quot;2622&quot; data-start=&quot;2576&quot; class=&quot;max-w-[calc(var(--thread-content-max-width)*2/3)]&quot;&gt;Диагностические данные&lt;/td&gt;&lt;/tr&gt;&lt;/tbody&gt;&lt;/table&gt;&lt;table&gt;&lt;tbody&gt;&lt;tr&gt;&lt;td class=&quot;max-w-[calc(var(--thread-content-max-width)*2/3)]&quot;&gt;&lt;/td&gt;&lt;/tr&gt;&lt;/tbody&gt;&lt;/table&gt;" style="html=1;dashed=0;whiteSpace=wrap;" vertex="1" parent="1">
          <mxGeometry x="701" y="1644" width="100" height="50" as="geometry" />
        </mxCell>
        <mxCell id="F8TBr911rGf3QCcraJPH-48" value="&lt;table&gt;&lt;tbody&gt;&lt;tr&gt;&lt;td data-end=&quot;2622&quot; data-start=&quot;2576&quot; class=&quot;max-w-[calc(var(--thread-content-max-width)*2/3)]&quot;&gt;Данные о сотрудниках&lt;table&gt;&lt;tbody&gt;&lt;tr&gt;&lt;/tr&gt;&lt;/tbody&gt;&lt;/table&gt;&lt;/td&gt;&lt;/tr&gt;&lt;/tbody&gt;&lt;/table&gt;" style="html=1;dashed=0;whiteSpace=wrap;" vertex="1" parent="1">
          <mxGeometry x="701" y="1727" width="100" height="50" as="geometry" />
        </mxCell>
        <mxCell id="F8TBr911rGf3QCcraJPH-49" value="&lt;table&gt;&lt;tbody&gt;&lt;tr&gt;&lt;td data-end=&quot;2622&quot; data-start=&quot;2576&quot; class=&quot;max-w-[calc(var(--thread-content-max-width)*2/3)]&quot;&gt;Данные о оборудовании и запасах&lt;table&gt;&lt;tbody&gt;&lt;tr&gt;&lt;/tr&gt;&lt;/tbody&gt;&lt;/table&gt;&lt;/td&gt;&lt;/tr&gt;&lt;/tbody&gt;&lt;/table&gt;" style="html=1;dashed=0;whiteSpace=wrap;" vertex="1" parent="1">
          <mxGeometry x="703" y="1822" width="100" height="50" as="geometry" />
        </mxCell>
        <mxCell id="F8TBr911rGf3QCcraJPH-50" value="Профили пользователей и доступы" style="html=1;dashed=0;whiteSpace=wrap;" vertex="1" parent="1">
          <mxGeometry x="703" y="1928" width="100" height="50" as="geometry" />
        </mxCell>
        <mxCell id="F8TBr911rGf3QCcraJPH-51" value="" style="endArrow=classic;html=1;rounded=0;entryX=1;entryY=0.5;entryDx=0;entryDy=0;exitX=0;exitY=0.5;exitDx=0;exitDy=0;" edge="1" parent="1" source="F8TBr911rGf3QCcraJPH-37" target="F8TBr911rGf3QCcraJPH-46">
          <mxGeometry width="50" height="50" relative="1" as="geometry">
            <mxPoint x="773" y="1805" as="sourcePoint" />
            <mxPoint x="823" y="1755" as="targetPoint" />
          </mxGeometry>
        </mxCell>
        <mxCell id="F8TBr911rGf3QCcraJPH-52" value="" style="endArrow=classic;html=1;rounded=0;entryX=1;entryY=0.5;entryDx=0;entryDy=0;exitX=0;exitY=0.5;exitDx=0;exitDy=0;" edge="1" parent="1" source="F8TBr911rGf3QCcraJPH-38" target="F8TBr911rGf3QCcraJPH-47">
          <mxGeometry width="50" height="50" relative="1" as="geometry">
            <mxPoint x="773" y="1805" as="sourcePoint" />
            <mxPoint x="823" y="1755" as="targetPoint" />
          </mxGeometry>
        </mxCell>
        <mxCell id="F8TBr911rGf3QCcraJPH-53" value="" style="endArrow=classic;html=1;rounded=0;entryX=1;entryY=0.5;entryDx=0;entryDy=0;exitX=0;exitY=0.5;exitDx=0;exitDy=0;" edge="1" parent="1" source="F8TBr911rGf3QCcraJPH-39" target="F8TBr911rGf3QCcraJPH-48">
          <mxGeometry width="50" height="50" relative="1" as="geometry">
            <mxPoint x="773" y="1805" as="sourcePoint" />
            <mxPoint x="823" y="1755" as="targetPoint" />
          </mxGeometry>
        </mxCell>
        <mxCell id="F8TBr911rGf3QCcraJPH-54" value="" style="endArrow=classic;html=1;rounded=0;entryX=1;entryY=0.5;entryDx=0;entryDy=0;exitX=0;exitY=0.5;exitDx=0;exitDy=0;" edge="1" parent="1" source="F8TBr911rGf3QCcraJPH-40" target="F8TBr911rGf3QCcraJPH-49">
          <mxGeometry width="50" height="50" relative="1" as="geometry">
            <mxPoint x="773" y="1805" as="sourcePoint" />
            <mxPoint x="823" y="1755" as="targetPoint" />
          </mxGeometry>
        </mxCell>
        <mxCell id="F8TBr911rGf3QCcraJPH-55" value="" style="endArrow=classic;html=1;rounded=0;entryX=1;entryY=0.5;entryDx=0;entryDy=0;exitX=0;exitY=0.5;exitDx=0;exitDy=0;" edge="1" parent="1" source="F8TBr911rGf3QCcraJPH-41" target="F8TBr911rGf3QCcraJPH-50">
          <mxGeometry width="50" height="50" relative="1" as="geometry">
            <mxPoint x="773" y="1805" as="sourcePoint" />
            <mxPoint x="823" y="1755" as="targetPoint" />
          </mxGeometry>
        </mxCell>
        <mxCell id="F8TBr911rGf3QCcraJPH-57" value="" style="endArrow=none;html=1;rounded=0;entryX=0;entryY=0.5;entryDx=0;entryDy=0;" edge="1" parent="1" target="F8TBr911rGf3QCcraJPH-46">
          <mxGeometry width="50" height="50" relative="1" as="geometry">
            <mxPoint x="600" y="1574" as="sourcePoint" />
            <mxPoint x="823" y="1755" as="targetPoint" />
          </mxGeometry>
        </mxCell>
        <mxCell id="F8TBr911rGf3QCcraJPH-58" value="" style="endArrow=none;html=1;rounded=0;exitX=0.002;exitY=0.6;exitDx=0;exitDy=0;exitPerimeter=0;" edge="1" parent="1" source="F8TBr911rGf3QCcraJPH-47">
          <mxGeometry width="50" height="50" relative="1" as="geometry">
            <mxPoint x="662" y="1684" as="sourcePoint" />
            <mxPoint x="600" y="1674" as="targetPoint" />
          </mxGeometry>
        </mxCell>
        <mxCell id="F8TBr911rGf3QCcraJPH-59" value="" style="endArrow=none;html=1;rounded=0;entryX=0;entryY=0.5;entryDx=0;entryDy=0;edgeStyle=orthogonalEdgeStyle;" edge="1" parent="1" target="F8TBr911rGf3QCcraJPH-48">
          <mxGeometry width="50" height="50" relative="1" as="geometry">
            <mxPoint x="600" y="1735" as="sourcePoint" />
            <mxPoint x="712" y="1730" as="targetPoint" />
            <Array as="points">
              <mxPoint x="600" y="1752" />
            </Array>
          </mxGeometry>
        </mxCell>
        <mxCell id="F8TBr911rGf3QCcraJPH-60" value="" style="endArrow=none;html=1;rounded=0;exitX=0;exitY=0.5;exitDx=0;exitDy=0;edgeStyle=orthogonalEdgeStyle;" edge="1" parent="1" source="F8TBr911rGf3QCcraJPH-49">
          <mxGeometry width="50" height="50" relative="1" as="geometry">
            <mxPoint x="643" y="1822" as="sourcePoint" />
            <mxPoint x="600" y="1751" as="targetPoint" />
          </mxGeometry>
        </mxCell>
        <mxCell id="F8TBr911rGf3QCcraJPH-61" value="" style="endArrow=none;html=1;rounded=0;exitX=0;exitY=0.5;exitDx=0;exitDy=0;edgeStyle=orthogonalEdgeStyle;" edge="1" parent="1" source="F8TBr911rGf3QCcraJPH-50">
          <mxGeometry width="50" height="50" relative="1" as="geometry">
            <mxPoint x="569" y="1926" as="sourcePoint" />
            <mxPoint x="600" y="1845" as="targetPoint" />
          </mxGeometry>
        </mxCell>
      </root>
    </mxGraphModel>
  </diagram>
</mxfile>
